<?xml version="1.0" encoding="UTF-8" standalone="no"?>
<svg width="562px" height="186px" viewBox="0 0 562 186" version="1.1" xmlns="http://www.w3.org/2000/svg" xmlns:xlink="http://www.w3.org/1999/xlink">
    <!-- Generator: Sketch 3.7 (28169) - http://www.bohemiancoding.com/sketch -->
    <title>ls_logo_ horizontal</title>
    <desc>Created with Sketch.</desc>
    <defs></defs>
    <g id="Page-1" stroke="none" stroke-width="1" fill="none" fill-rule="evenodd">
        <g id="ls_logo_-horizontal">
            <g id="engineering_logo" transform="translate(10.000000, 14.000000)">
                <g id="Group-3" transform="translate(0.000000, 0.525071)" fill="#00618B">
                    <path d="M4.79076615,19.8225203 C4.62348129,22.8302755 4.53854207,25.7670224 4.53854207,28.5584954 C4.53854207,59.8164788 8.86525483,82.0896324 18.5671285,100.77589 C27.8196672,118.598973 42.5485159,134.033832 66.2945373,150.78267 C110.158185,119.81784 128.056368,84.3768813 128.056368,28.5584954 C128.056368,25.7761427 127.975319,22.9410224 127.808683,19.9033004 C108.565088,9.80644149 87.845107,4.68667801 66.2199723,4.68667801 C44.655138,4.68667801 23.9883251,9.7790805 4.79076615,19.8225203 L4.79076615,19.8225203 Z M66.2958341,156.348678 L64.0342465,154.759134 C39.4582846,137.474802 24.1945135,121.476437 14.5432143,102.885292 C4.48537402,83.5130556 -0.000194517283,60.5897527 -0.000194517283,28.5584954 C-0.000194517283,25.5754954 0.0938221692,22.4335411 0.278613588,19.2218813 L0.406994994,16.9815369 L2.38653254,15.9398647 C22.324554,5.44692282 43.8018555,0.126512033 66.2199723,0.126512033 C88.6996863,0.126512033 110.230804,5.47493527 130.216158,16.0225992 L132.194399,17.0675286 L132.320835,19.3065701 C132.505627,22.5592714 132.595105,25.5859187 132.595105,28.5584954 C132.595105,86.2068108 114.042046,122.76957 68.5567733,154.758483 L66.2958341,156.348678 Z" id="Fill-1"></path>
                </g>
                <path d="M104.238181,62.3525826 C98.6069054,75.5054041 92.1858899,80.9593627 85.9282689,93.9662589 C74.1865573,118.357935 66.176984,131.957653 66.176984,131.957653 C66.176984,131.957653 58.5843261,118.149471 46.4308863,93.9662589 C39.6467719,80.4655618 33.7464143,75.5054041 28.1203261,62.3525826 C26.7930698,59.2529726 28.2208267,55.6563046 31.3084644,54.3240846 C34.3915633,52.9912133 37.6296277,54.5963917 39.2946956,57.5246697 C48.5258374,73.7217278 59.8415561,77.3874498 66.176984,77.3874498 C72.5163023,77.3874498 83.8333178,73.7217278 93.0638112,57.5246697 C94.7282308,54.5963917 97.9675919,52.9912133 101.050691,54.3240846 C104.13768,55.6563046 105.564789,59.2529726 104.238181,62.3525826 M64.8088791,34.4085369 C71.4886026,34.087371 77.2333464,40.8292506 77.6379423,49.4668564 C78.0516157,58.1103253 72.9675824,65.3720639 66.2891557,65.6893212 C59.6087838,66.0104871 53.8607981,59.2633959 53.4555538,50.6270929 C53.0457707,41.9875328 58.1259137,34.7231884 64.8088791,34.4085369 M122.941666,24.4921303 C105.907139,15.5020888 86.6972605,10.4390017 66.367611,10.4390017 C46.0982617,10.4390017 26.9389578,15.472122 9.9394441,24.4185162 C9.7818851,27.1611303 9.69175876,29.9252423 9.69175876,32.7069436 C9.69175876,88.5969892 24.9847075,115.452458 66.4363404,144.605599 C106.420665,116.484359 123.184164,84.0055535 123.184164,32.7069436 C123.184164,29.9493461 123.094686,27.2099892 122.941666,24.4921303" id="Fill-4" fill="#00618B"></path>
                <path d="M93.472058,29.6708089 C89.414951,30.9450726 86.472058,34.7353648 86.472058,39.2130066 C86.472058,43.3136447 88.9402484,46.837806 92.472058,48.3809193 L92.472058,83.6773591 C92.472058,85.8789863 94.262919,87.6708089 96.472058,87.6708089 C98.6767018,87.6708089 100.472058,85.8828805 100.472058,83.6773591 L100.472058,48.3809193 C104.003868,46.837806 106.472058,43.3136447 106.472058,39.2130066 C106.472058,34.7353648 103.529165,30.9450726 99.472058,29.6708089 L99.472058,38.2130066 L96.472058,40.9922797 L93.472058,38.2130066 L93.472058,29.6708089 Z" id="Combined-Shape" fill="#D8D8D8" transform="translate(96.472058, 58.670809) rotate(-8.000000) translate(-96.472058, -58.670809) "></path>
                <text id="Engineering" font-family="AvenirNext-Regular, Avenir Next" font-size="72" font-weight="normal" fill="#00618B">
                    <tspan x="139" y="104">Engineering</tspan>
                </text>
            </g>
        </g>
    </g>
</svg>