<?xml version="1.0" encoding="UTF-8" standalone="no"?>
<svg width="562px" height="186px" viewBox="0 0 562 186" version="1.1" xmlns="http://www.w3.org/2000/svg" xmlns:xlink="http://www.w3.org/1999/xlink">
    <!-- Generator: Sketch 3.7 (28169) - http://www.bohemiancoding.com/sketch -->
    <title>ls_logo_horizontal</title>
    <desc>Created with Sketch.</desc>
    <defs></defs>
    <g id="general" stroke="none" stroke-width="1" fill="none" fill-rule="evenodd">
        <g id="ls_logo_horizontal" fill="#FFFFFF">
            <g id="engineering_logo" transform="translate(10.000000, 14.000000)">
                <g id="Group-3" transform="translate(0.000000, 0.525071)">
                    <path d="M4.79076615,19.8225203 C4.62348129,22.8302755 4.53854207,25.7670224 4.53854207,28.5584954 C4.53854207,59.8164788 8.86525483,82.0896324 18.5671285,100.77589 C27.8196672,118.598973 42.5485159,134.033832 66.2945373,150.78267 C110.158185,119.81784 128.056368,84.3768813 128.056368,28.5584954 C128.056368,25.7761427 127.975319,22.9410224 127.808683,19.9033004 C108.565088,9.80644149 87.845107,4.68667801 66.2199723,4.68667801 C44.655138,4.68667801 23.9883251,9.7790805 4.79076615,19.8225203 L4.79076615,19.8225203 Z M66.2958341,156.348678 L64.0342465,154.759134 C39.4582846,137.474802 24.1945135,121.476437 14.5432143,102.885292 C4.48537402,83.5130556 -0.000194517283,60.5897527 -0.000194517283,28.5584954 C-0.000194517283,25.5754954 0.0938221692,22.4335411 0.278613588,19.2218813 L0.406994994,16.9815369 L2.38653254,15.9398647 C22.324554,5.44692282 43.8018555,0.126512033 66.2199723,0.126512033 C88.6996863,0.126512033 110.230804,5.47493527 130.216158,16.0225992 L132.194399,17.0675286 L132.320835,19.3065701 C132.505627,22.5592714 132.595105,25.5859187 132.595105,28.5584954 C132.595105,86.2068108 114.042046,122.76957 68.5567733,154.758483 L66.2958341,156.348678 Z" id="Fill-1"></path>
                </g>
                <path d="M101.764906,67.5901912 C102.603748,65.9730872 103.429115,64.2422952 104.238181,62.3525826 C105.564789,59.2529726 104.13768,55.6563046 101.050691,54.3240846 C100.651149,54.1513564 100.248982,54.0279693 99.8479593,53.9504087 L99.0010544,47.9243674 C102.283733,45.9047387 104.237435,42.0713686 103.666736,38.0106376 C103.043569,33.5765719 99.601809,30.2327381 95.4068423,29.5355156 L96.5956864,37.9945813 L94.0116823,41.1643259 L90.654078,38.8296199 L89.4652339,30.3705542 L89.4652339,30.3705542 C85.6249536,32.197057 83.2382073,36.360034 83.8613746,40.7940996 C84.4320731,44.8548306 87.3667118,48.0011893 91.0789099,49.0377522 L92.4255229,58.6194014 C83.3168431,73.8879403 72.3709152,77.3874498 66.176984,77.3874498 C59.8415561,77.3874498 48.5258374,73.7217278 39.2946956,57.5246697 C37.6296277,54.5963917 34.3915633,52.9912133 31.3084644,54.3240846 C28.2208267,55.6563046 26.7930698,59.2529726 28.1203261,62.3525826 C33.7464143,75.5054041 39.6467719,80.4655618 46.4308863,93.9662589 C58.5843261,118.149471 66.176984,131.957653 66.176984,131.957653 C66.176984,131.957653 74.1865573,118.357935 85.9282689,93.9662589 C89.018432,87.5431421 92.1484408,82.9619004 95.2035142,78.3858367 L95.9912249,83.9906895 C96.2976321,86.1708905 98.3204381,87.6960356 100.508078,87.3885829 C102.691266,87.0817558 104.220319,85.0613621 103.913369,82.8773047 L101.764906,67.5901912 Z M64.8088791,34.4085369 C71.4886026,34.087371 77.2333464,40.8292506 77.6379423,49.4668564 C78.0516157,58.1103253 72.9675824,65.3720639 66.2891557,65.6893212 C59.6087838,66.0104871 53.8607981,59.2633959 53.4555538,50.6270929 C53.0457707,41.9875328 58.1259137,34.7231884 64.8088791,34.4085369 M122.941666,24.4921303 C105.907139,15.5020888 86.6972605,10.4390017 66.367611,10.4390017 C46.0982617,10.4390017 26.9389578,15.472122 9.9394441,24.4185162 C9.7818851,27.1611303 9.69175876,29.9252423 9.69175876,32.7069436 C9.69175876,88.5969892 24.9847075,115.452458 66.4363404,144.605599 C106.420665,116.484359 123.184164,84.0055535 123.184164,32.7069436 C123.184164,29.9493461 123.094686,27.2099892 122.941666,24.4921303" id="Fill-4"></path>
                <text id="Engineering" font-family="AvenirNext-Regular, Avenir Next" font-size="72" font-weight="normal">
                    <tspan x="139" y="104">Engineering</tspan>
                </text>
            </g>
        </g>
    </g>
</svg>