<?xml version="1.0" encoding="UTF-8" standalone="no"?>
<svg width="200px" height="199px" viewBox="0 0 200 199" version="1.1" xmlns="http://www.w3.org/2000/svg" xmlns:xlink="http://www.w3.org/1999/xlink" style="background: #FFFFFF;">
    <!-- Generator: Sketch 3.7 (28169) - http://www.bohemiancoding.com/sketch -->
    <title>Slice 1</title>
    <desc>Created with Sketch.</desc>
    <defs></defs>
    <g id="Page-1" stroke="none" stroke-width="1" fill="none" fill-rule="evenodd">
        <path d="M99.5837564,186.194193 L97.312537,184.604979 C72.6291488,167.324307 57.2996894,151.329062 47.6064414,132.740769 C37.5045311,113.371971 33,90.4525282 33,58.4268973 C33,55.444059 33.0943067,52.3030855 33.279684,49.0918296 L33.4086623,46.8520421 L35.3964993,45.8102913 C55.4214146,35.3192639 76.9912953,30 99.5070166,30 C122.084222,30 143.708653,35.347007 163.781184,45.893058 L165.767172,46.9375832 L165.894763,49.1764458 C166.079678,52.4288539 166.169824,55.4546938 166.169824,58.4268973 C166.169824,116.064895 147.536395,152.621425 101.853589,184.604979 L99.5837564,186.194193 L99.5837564,186.194193 Z M37.8119524,49.6924662 C37.644142,52.6993484 37.5586188,55.6359483 37.5586188,58.4268973 C37.5586188,89.6794224 41.9041229,111.948291 51.6477603,130.631836 C60.9406672,148.45211 75.7334105,163.883709 99.5828318,180.62894 C143.635611,149.670029 161.61213,114.235704 161.61213,58.4268973 C161.61213,55.6447336 161.529843,52.8103206 161.362957,49.7733834 C142.035634,39.6781566 121.225754,34.5595672 99.5074789,34.5595672 C77.848839,34.5595672 57.0925846,39.6513383 37.8119524,49.6924662 L37.8119524,49.6924662 Z" id="Shape" fill="#00618B"></path>
        <path d="M156.474727,53.835888 C139.366847,44.8476081 120.073733,39.7854296 99.6558732,39.7854296 C79.2985731,39.7854296 60.0558486,44.8175532 42.9831024,53.7623689 C42.8245377,56.5043052 42.7343916,59.2679735 42.7343916,62.0496748 C42.7343916,117.930151 58.0938997,144.78032 99.7247541,173.928536 C139.882298,145.811898 156.718815,113.339142 156.718815,62.0496748 C156.718815,59.2924799 156.629131,56.5537803 156.474727,53.835888 M98.0901049,63.7503227 C104.798824,63.4294283 110.568174,70.1700602 110.974987,78.8060035 C111.390121,87.4479579 106.284616,94.7087716 99.576822,95.0259669 C92.8681033,95.3468613 87.0941302,88.6016056 86.687317,79.966587 C86.275881,71.3283317 91.3781501,64.0656685 98.0901049,63.7503227 M137.690592,91.6898674 C132.034964,104.840064 125.585589,110.293882 119.30125,123.297966 C107.508754,147.685478 99.4644861,161.2828 99.4644861,161.2828 C99.4644861,161.2828 91.8385886,147.476942 79.6323448,123.297966 C72.819149,109.799594 66.8930833,104.840064 61.242541,91.6898674 C59.9093034,88.5909708 61.3433197,84.9945491 64.4443455,83.6628836 C67.5412106,82.3302933 70.7929421,83.9352277 72.465499,86.8625799 C81.736216,103.057112 93.1015586,106.721967 99.4644861,106.721967 C105.831574,106.721967 117.197379,103.057112 126.467634,86.8625799 C128.139728,83.9352277 131.392385,82.3302933 134.489712,83.6628836 C137.588889,84.9945491 139.023367,88.5909708 137.690592,91.6898674" id="Shape" fill="#00618B"></path>
    </g>
</svg>